# xmcd
# 
# Track frame offsets:
#     183
#     11120
#     37898
#     46055
#     63473
#     95465
#     101470
#     122100
#     129468
#     148845
#     156850
#     161678
#     175330
#     189528
#     196950
# 
# Disc length: 2783
# 
# Revision: 20
# Processed by: cddbd v1.5.2PL0 Copyright (c) Steve Scherf et al.
# Submitted via: fre:ac v1.0.17
# 
DISCID=cc0add0f
DTITLE=Various Artist - A Clockwork Orange
DYEAR=1972
DGENRE=Soundtrack
TTITLE0=Walter Carlos - Title Music From "A Clockwork Orange"
TTITLE1=Gioacchino Rossini - The Thieving Magpie (Abridged)
TTITLE2=Walter Carlos - Theme From "A Clockwork Orange" (Beethoviana)
TTITLE3=Ludwig van Beethoven - Ninth Symphony, Second Movement (Abridged)
TTITLE4=Ludwig van Beethoven - March From "A Clockwork Orange"
TTITLE5=Gioacchino Rossini - William Tell Overture (Abridged)
TTITLE6=Sir Edward Elgar - Pomp And Circumstance March No. I
TTITLE7=Sir Edward Elgar - Pomp And Circumstance March No. IV (Abridged)
TTITLE8=Walter Carlos - Timesteps (Excerpt)
TTITLE9=Terry Tucker - Overture To The Sun
TTITLE10=Erika Elgen - I Want To Marry A Lighthouse Keeper
TTITLE11=Gioacchino Rossini - William Tell Overture (Abridged)
TTITLE12=Ludwig van Beethoven - Suicide Scherzo (Ninth Symphony, Second Movement
TTITLE13=Ludwig van Beethoven - Ninth Symphony, Fourth Movement (Abridged)
TTITLE14=A.Freed, N.H.Brown - Singin' In The Rain
EXTD=YEAR: 1972
EXTT0=
EXTT1=
EXTT2=
EXTT3=
EXTT4=
EXTT5=
EXTT6=
EXTT7=
EXTT8=
EXTT9=
EXTT10=
EXTT11=
EXTT12=
EXTT13=
EXTT14=
PLAYORDER=
